{"asset":{"generator":"Khronos glTF Blender I/O v4.0.44","version":"2.0"},"scene":0,"scenes":[{"name":"Scene","nodes":[0,6]}],"nodes":[{"camera":0,"name":"Cámara","rotation":[0.5201104283332825,0.16927771270275116,0.24007214605808258,0.8019947409629822],"scale":[68.11276245117188,50.48776626586914,131.30604553222656],"translation":[382.59820556640625,-528.8267822265625,246.15487670898438]},{"name":"Hueso.002","rotation":[-0.9981388449668884,-4.048747353547523e-14,-2.3797420567461813e-7,0.06098295748233795],"scale":[1,0.9999998807907104,0.9999945759773254],"translation":[5.329070518200751e-15,0.9442365169525146,-1.862645149230957e-8]},{"children":[1],"name":"Hueso","rotation":[0.7286216616630554,8.16484018173469e-8,8.68584777435899e-8,0.6849164366722107],"translation":[0,-0.015192979946732521,0.05394919961690903]},{"name":"Hueso.003","rotation":[-0.9986394047737122,4.973207623493181e-8,-9.523758990326314e-7,0.05214712768793106],"scale":[1,1,1.000029444694519],"translation":[0,0.0042615667916834354,-6.05359673500061e-9]},{"children":[3],"name":"Hueso.001","rotation":[0.17701180279254913,0,0,0.9842087030410767],"translation":[0,-0.057344816625118256,0.07834484428167343]},{"mesh":0,"name":"b_Top_cover1_001_","skin":0},{"children":[5,2,4],"name":"Esqueleto.001","rotation":[0.5926727056503296,0,0,0.8054434061050415],"scale":[150,150,150],"translation":[0,5.6331024169921875,7.276721954345703]}],"cameras":[{"name":"Cámara","perspective":{"aspectRatio":1.7777777777777777,"yfov":0.39959652046304894,"zfar":1000,"znear":0.10000000149011612},"type":"perspective"}],"materials":[{"doubleSided":true,"extras":{"luxrender_transparency":{},"luxrender_coating":{}},"name":"blue.001","pbrMetallicRoughness":{}}],"meshes":[{"name":"b_Top_cover1_001_","primitives":[{"attributes":{"POSITION":0,"NORMAL":1,"JOINTS_0":2,"WEIGHTS_0":3},"indices":4,"material":0}]}],"skins":[{"inverseBindMatrices":5,"joints":[2,1,4,3],"name":"Esqueleto.001"}],"accessors":[{"bufferView":0,"componentType":5126,"count":58233,"max":[40.72865295410156,20.889177322387695,78.15696716308594],"min":[-39.48967742919922,-128.49871826171875,-59.150753021240234],"type":"VEC3"},{"bufferView":1,"componentType":5126,"count":58233,"type":"VEC3"},{"bufferView":2,"componentType":5121,"count":58233,"type":"VEC4"},{"bufferView":3,"componentType":5126,"count":58233,"type":"VEC4"},{"bufferView":4,"componentType":5123,"count":73611,"type":"SCALAR"},{"bufferView":5,"componentType":5126,"count":4,"type":"MAT4"},{"bufferView":6,"componentType":5126,"count":1,"max":[0.08333333333333333],"min":[0.08333333333333333],"type":"SCALAR"},{"bufferView":7,"componentType":5126,"count":1,"type":"VEC3"},{"bufferView":8,"componentType":5126,"count":1,"type":"VEC4"},{"bufferView":9,"componentType":5126,"count":1,"type":"VEC3"},{"bufferView":10,"componentType":5126,"count":2,"max":[2.9166666666666665],"min":[0.08333333333333333],"type":"SCALAR"},{"bufferView":11,"componentType":5126,"count":2,"type":"VEC3"},{"bufferView":12,"componentType":5126,"count":69,"max":[2.9166666666666665],"min":[0.08333333333333333],"type":"SCALAR"},{"bufferView":13,"componentType":5126,"count":69,"type":"VEC4"},{"bufferView":14,"componentType":5126,"count":2,"type":"VEC3"},{"bufferView":15,"componentType":5126,"count":2,"type":"VEC3"},{"bufferView":16,"componentType":5126,"count":2,"type":"VEC4"},{"bufferView":17,"componentType":5126,"count":2,"type":"VEC3"},{"bufferView":18,"componentType":5126,"count":2,"type":"VEC3"},{"bufferView":19,"componentType":5126,"count":69,"type":"VEC4"},{"bufferView":20,"componentType":5126,"count":2,"type":"VEC3"},{"bufferView":21,"componentType":5126,"count":2,"type":"VEC3"},{"bufferView":22,"componentType":5126,"count":2,"type":"VEC4"},{"bufferView":23,"componentType":5126,"count":2,"type":"VEC3"},{"bufferView":24,"componentType":5126,"count":2,"type":"VEC3"},{"bufferView":25,"componentType":5126,"count":69,"type":"VEC4"},{"bufferView":26,"componentType":5126,"count":2,"type":"VEC3"}],"bufferViews":[{"buffer":0,"byteLength":698796,"byteOffset":0,"target":34962},{"buffer":0,"byteLength":698796,"byteOffset":698796,"target":34962},{"buffer":0,"byteLength":232932,"byteOffset":1397592,"target":34962},{"buffer":0,"byteLength":931728,"byteOffset":1630524,"target":34962},{"buffer":0,"byteLength":147222,"byteOffset":2562252,"target":34963},{"buffer":0,"byteLength":256,"byteOffset":2709476},{"buffer":0,"byteLength":4,"byteOffset":2709732},{"buffer":0,"byteLength":12,"byteOffset":2709736},{"buffer":0,"byteLength":16,"byteOffset":2709748},{"buffer":0,"byteLength":12,"byteOffset":2709764},{"buffer":0,"byteLength":8,"byteOffset":2709776},{"buffer":0,"byteLength":24,"byteOffset":2709784},{"buffer":0,"byteLength":276,"byteOffset":2709808},{"buffer":0,"byteLength":1104,"byteOffset":2710084},{"buffer":0,"byteLength":24,"byteOffset":2711188},{"buffer":0,"byteLength":24,"byteOffset":2711212},{"buffer":0,"byteLength":32,"byteOffset":2711236},{"buffer":0,"byteLength":24,"byteOffset":2711268},{"buffer":0,"byteLength":24,"byteOffset":2711292},{"buffer":0,"byteLength":1104,"byteOffset":2711316},{"buffer":0,"byteLength":24,"byteOffset":2712420},{"buffer":0,"byteLength":24,"byteOffset":2712444},{"buffer":0,"byteLength":32,"byteOffset":2712468},{"buffer":0,"byteLength":24,"byteOffset":2712500},{"buffer":0,"byteLength":24,"byteOffset":2712524},{"buffer":0,"byteLength":1104,"byteOffset":2712548},{"buffer":0,"byteLength":24,"byteOffset":2713652}],"buffers":[{"byteLength":2713676,"uri":"data:application/octet-stream;base64,"}]}